<?xml version="1.0" encoding="UTF-8"?>
<svg xmlns="http://www.w3.org/2000/svg" xmlns:xlink="http://www.w3.org/1999/xlink" viewBox="0 0 48 48" width="48px" height="48px">
<g id="surface16533544">
<path style=" stroke:none;fill-rule:nonzero;fill:rgb(81.568629%,6.666667%,0%);fill-opacity:1;" d="M 44 24 C 44 35.046875 35.046875 44 24 44 C 12.953125 44 4 35.046875 4 24 C 4 12.953125 12.953125 4 24 4 C 35.046875 4 44 12.953125 44 24 Z M 44 24 "/>
<path style=" stroke:none;fill-rule:nonzero;fill:rgb(100%,100%,100%);fill-opacity:1;" d="M 24.847656 12.125 C 24.082031 11.796875 23.195312 12.148438 22.871094 12.910156 L 14.03125 33.5 C 13.929688 33.734375 14.101562 34 14.359375 34 L 16.585938 34 C 16.886719 34 17.15625 33.820312 17.273438 33.546875 L 20.964844 24.949219 L 31.546875 33.65625 C 31.824219 33.886719 32.160156 34 32.5 34 C 32.816406 34 33.136719 33.898438 33.402344 33.699219 C 33.957031 33.28125 34.152344 32.539062 33.875 31.902344 L 25.625 12.902344 C 25.46875 12.539062 25.183594 12.269531 24.847656 12.125 Z M 22.199219 22.078125 L 24.257812 17.285156 L 28.640625 27.382812 Z M 22.199219 22.078125 "/>
</g>
</svg>
